<svg xmlns="http://www.w3.org/2000/svg" viewBox="0 0 128 128">
  <defs>
    <linearGradient id="g" x1="0" y1="0" x2="1" y2="1">
      <stop offset="0%" stop-color="#6366f1"/>
      <stop offset="100%" stop-color="#8b5cf6"/>
    </linearGradient>
  </defs>
  <rect x="6" y="6" width="116" height="116" rx="26" fill="url(#g)"/>
  <path d="M40 38h48a6 6 0 016 6v52a6 6 0 01-6 6H40a6 6 0 01-6-6V44a6 6 0 016-6z" fill="#fff" opacity="0.96"/>
  <rect x="44" y="32" width="40" height="14" rx="4" fill="#fff"/>
  <rect x="48" y="36" width="32" height="6" rx="2" fill="#6366f1"/>
  <path d="M46 60h36M46 72h36M46 84h22" stroke="#6366f1" stroke-width="4" stroke-linecap="round"/>
  <circle cx="92" cy="92" r="14" fill="#10b981" stroke="#fff" stroke-width="3"/>
  <path d="M86 92l4 4 8-8" stroke="#fff" stroke-width="3" stroke-linecap="round" stroke-linejoin="round" fill="none"/>
</svg>
